{"accessors":[{"bufferView":0,"byteOffset":0,"componentType":5123,"count":16590,"type":"SCALAR","max":[2905],"min":[0]},{"bufferView":1,"byteOffset":0,"componentType":5126,"count":2906,"type":"VEC3","max":[-0.5015456080436707,-82.44036865234375,61.06221008300781],"min":[-170.6621551513672,-253.04354858398438,-134.93246459960938],"name":"POSITION"},{"bufferView":1,"byteOffset":12,"componentType":5126,"count":2906,"type":"VEC2","max":[0.8741208910942078,0.4137173891067505],"min":[0.8741208910942078,0.4137173891067505],"name":"TEXCOORD_0"},{"bufferView":0,"byteOffset":33180,"componentType":5123,"count":2880,"type":"SCALAR","max":[481],"min":[0]},{"bufferView":2,"byteOffset":0,"componentType":5126,"count":482,"type":"VEC3","max":[25.325227737426758,3.8286757469177246,14.084297180175781],"min":[-8.357002258300781,-1.9682422876358032,-19.597946166992188],"name":"POSITION"},{"bufferView":0,"byteOffset":38940,"componentType":5123,"count":2688,"type":"SCALAR","max":[447],"min":[0]},{"bufferView":3,"byteOffset":0,"componentType":5126,"count":448,"type":"VEC3","max":[16.492416381835938,2.31258225440979,16.492420196533203],"min":[-16.492414474487305,-2.312584161758423,-16.4924259185791],"name":"POSITION"},{"bufferView":3,"byteOffset":12,"componentType":5126,"count":448,"type":"VEC2","max":[1.0094685554504395,1.0094685554504395],"min":[-0.009468436241149902,-0.009468555450439453],"name":"TEXCOORD_0"},{"bufferView":0,"byteOffset":44316,"componentType":5123,"count":23493,"type":"SCALAR","max":[3941],"min":[0]},{"bufferView":4,"byteOffset":0,"componentType":5126,"count":3942,"type":"VEC3","max":[33.032264709472656,34.47411346435547,32.541900634765625],"min":[-32.805519104003906,-9.98749828338623,-32.458518981933594],"name":"POSITION"},{"bufferView":0,"byteOffset":91304,"componentType":5123,"count":3045,"type":"SCALAR","max":[533],"min":[0]},{"bufferView":5,"byteOffset":0,"componentType":5126,"count":534,"type":"VEC3","max":[32.0474967956543,33.050662994384766,31.187583923339844],"min":[-31.718408584594727,-9.987417221069336,-30.472740173339844],"name":"POSITION"},{"bufferView":0,"byteOffset":97396,"componentType":5123,"count":6825,"type":"SCALAR","max":[1144],"min":[0]},{"bufferView":6,"byteOffset":0,"componentType":5126,"count":1145,"type":"VEC3","max":[33.18072509765625,49.194664001464844,13.34402084350586],"min":[-35.77363204956055,-49.19512939453125,-35.773643493652344],"name":"POSITION"},{"bufferView":6,"byteOffset":12,"componentType":5126,"count":1145,"type":"VEC2","max":[1.6510447263717651,2.0279645919799805],"min":[-1.4183510541915894,-1.361145257949829],"name":"TEXCOORD_0"},{"bufferView":0,"byteOffset":111048,"componentType":5123,"count":7335,"type":"SCALAR","max":[1219],"min":[0]},{"bufferView":7,"byteOffset":0,"componentType":5126,"count":1220,"type":"VEC3","max":[35.77363586425781,49.19432830810547,35.77364730834961],"min":[-33.1931266784668,-49.19518280029297,-13.374770164489746],"name":"POSITION"},{"bufferView":7,"byteOffset":12,"componentType":5126,"count":1220,"type":"VEC2","max":[2.4325618743896484,2.3992998600006104],"min":[-0.6382707357406616,-0.9908448457717896],"name":"TEXCOORD_0"},{"bufferView":0,"byteOffset":125720,"componentType":5123,"count":2112,"type":"SCALAR","max":[353],"min":[0]},{"bufferView":8,"byteOffset":0,"componentType":5126,"count":354,"type":"VEC3","max":[12.548715591430664,3.1407971382141113,12.548723220825195],"min":[-12.548715591430664,-2.650001049041748,-12.548721313476562],"name":"POSITION"},{"bufferView":0,"byteOffset":129944,"componentType":5123,"count":3360,"type":"SCALAR","max":[576],"min":[0]},{"bufferView":9,"byteOffset":0,"componentType":5126,"count":577,"type":"VEC3","max":[29.390411376953125,29.48125648498535,29.39042091369629],"min":[-29.390413284301758,-22.076322555541992,-29.390417098999023],"name":"POSITION"},{"bufferView":0,"byteOffset":136664,"componentType":5123,"count":1872,"type":"SCALAR","max":[336],"min":[0]},{"bufferView":10,"byteOffset":0,"componentType":5126,"count":337,"type":"VEC3","max":[14.553438186645508,11.5490140914917,6.390035152435303],"min":[-11.849809646606445,-10.800555229187012,-9.907464981079102],"name":"POSITION"},{"bufferView":10,"byteOffset":12,"componentType":5126,"count":337,"type":"VEC2","max":[0.9715018272399902,0.9537931680679321],"min":[0.003943145275115967,0.04643446207046509],"name":"TEXCOORD_0"},{"bufferView":0,"byteOffset":140408,"componentType":5123,"count":9855,"type":"SCALAR","max":[1685],"min":[0]},{"bufferView":11,"byteOffset":0,"componentType":5126,"count":1686,"type":"VEC3","max":[24.128849029541016,109.6781997680664,44.10179138183594],"min":[0.7658933401107788,-18.658674240112305,4.050168514251709],"name":"POSITION"},{"bufferView":11,"byteOffset":12,"componentType":5126,"count":1686,"type":"VEC2","max":[0.9950498342514038,0.9950494766235352],"min":[0.004950106143951416,0.004950463771820068],"name":"TEXCOORD_0"},{"bufferView":0,"byteOffset":160120,"componentType":5123,"count":8184,"type":"SCALAR","max":[1396],"min":[0]},{"bufferView":12,"byteOffset":0,"componentType":5126,"count":1397,"type":"VEC3","max":[36.94380187988281,21.27850914001465,16.287006378173828],"min":[-37.72504806518555,-21.405963897705078,-20.901105880737305],"name":"POSITION"},{"bufferView":12,"byteOffset":12,"componentType":5126,"count":1397,"type":"VEC2","max":[0.8876326680183411,0.6955214738845825],"min":[0.11236724257469177,0.017321348190307617],"name":"TEXCOORD_0"},{"bufferView":0,"byteOffset":176488,"componentType":5123,"count":9882,"type":"SCALAR","max":[1679],"min":[0]},{"bufferView":13,"byteOffset":0,"componentType":5126,"count":1680,"type":"VEC3","max":[44.872318267822266,109.6781005859375,1.7114495038986206],"min":[20.978641510009766,-18.411060333251953,-17.746803283691406],"name":"POSITION"},{"bufferView":13,"byteOffset":12,"componentType":5126,"count":1680,"type":"VEC2","max":[1.0062947273254395,0.9940940141677856],"min":[-0.006294667720794678,0.00590592622756958],"name":"TEXCOORD_0"},{"bufferView":0,"byteOffset":196252,"componentType":5123,"count":9990,"type":"SCALAR","max":[1697],"min":[0]},{"bufferView":14,"byteOffset":0,"componentType":5126,"count":1698,"type":"VEC3","max":[19.547428131103516,109.6781234741211,-4.050101280212402],"min":[-18.29775047302246,-18.65869140625,-44.101688385009766],"name":"POSITION"},{"bufferView":14,"byteOffset":12,"componentType":5126,"count":1698,"type":"VEC2","max":[1.8029481172561646,0.9950490593910217],"min":[0.19910618662834167,0.004950344562530518],"name":"TEXCOORD_0"},{"bufferView":0,"byteOffset":216232,"componentType":5123,"count":9846,"type":"SCALAR","max":[1673],"min":[0]},{"bufferView":15,"byteOffset":0,"componentType":5126,"count":1674,"type":"VEC3","max":[13.779708862304688,109.6781234741211,17.746809005737305],"min":[-43.407108306884766,-18.40287971496582,-1.71145761013031],"name":"POSITION"},{"bufferView":15,"byteOffset":12,"componentType":5126,"count":1674,"type":"VEC2","max":[2.8670575618743896,0.995048999786377],"min":[0.4435364007949829,0.0069239139556884766],"name":"TEXCOORD_0"},{"bufferView":0,"byteOffset":235924,"componentType":5123,"count":8550,"type":"SCALAR","max":[1457],"min":[0]},{"bufferView":16,"byteOffset":0,"componentType":5126,"count":1458,"type":"VEC3","max":[35.89400863647461,16.058740615844727,39.73322296142578],"min":[-9.038335800170898,-7.916713714599609,-28.00408935546875],"name":"POSITION"},{"bufferView":16,"byteOffset":12,"componentType":5126,"count":1458,"type":"VEC2","max":[0.7971205711364746,0.5382117033004761],"min":[0.14230695366859436,-0.017264127731323242],"name":"TEXCOORD_0"}],"asset":{"generator":"Aspose.3D 24.4.1","version":"2.0"},"buffers":[{"uri":"data:application/octet-stream;base64,","byteLength":636740}],"bufferViews":[{"buffer":0,"byteOffset":0,"byteLength":253024,"target":34963},{"buffer":0,"byteOffset":253028,"byteLength":58120,"byteStride":20,"target":34962},{"buffer":0,"byteOffset":311152,"byteLength":5784,"byteStride":12,"target":34962},{"buffer":0,"byteOffset":316940,"byteLength":8960,"byteStride":20,"target":34962},{"buffer":0,"byteOffset":325904,"byteLength":47304,"byteStride":12,"target":34962},{"buffer":0,"byteOffset":373212,"byteLength":6408,"byteStride":12,"target":34962},{"buffer":0,"byteOffset":379624,"byteLength":22900,"byteStride":20,"target":34962},{"buffer":0,"byteOffset":402528,"byteLength":24400,"byteStride":20,"target":34962},{"buffer":0,"byteOffset":426932,"byteLength":4248,"byteStride":12,"target":34962},{"buffer":0,"byteOffset":431184,"byteLength":6924,"byteStride":12,"target":34962},{"buffer":0,"byteOffset":438112,"byteLength":6740,"byteStride":20,"target":34962},{"buffer":0,"byteOffset":444856,"byteLength":33720,"byteStride":20,"target":34962},{"buffer":0,"byteOffset":478580,"byteLength":27940,"byteStride":20,"target":34962},{"buffer":0,"byteOffset":506524,"byteLength":33600,"byteStride":20,"target":34962},{"buffer":0,"byteOffset":540128,"byteLength":33960,"byteStride":20,"target":34962},{"buffer":0,"byteOffset":574092,"byteLength":33480,"byteStride":20,"target":34962},{"buffer":0,"byteOffset":607576,"byteLength":29160,"byteStride":20,"target":34962}],"images":[{"uri":"data:application/octet-stream;base64,"},{"uri":"data:application/octet-stream;base64,"},{"uri":"data:application/octet-stream;base64,"},{"uri":"data:application/octet-stream;base64,"}],"materials":[{"name":"Bone","pbrMetallicRoughness":{"baseColorFactor":[0.9764705882352941,0.9568627450980393,0.9137254901960784,1],"metallicFactor":1,"roughnessFactor":1},"emissiveFactor":[0,0,0],"alphaMode":"OPAQUE","doubleSided":false},{"name":"Conjunti","pbrMetallicRoughness":{"baseColorFactor":[0.0392156862745098,0.0784313725490196,0.17647058823529413,0.6],"metallicFactor":1,"roughnessFactor":1},"emissiveFactor":[0,0,0],"alphaMode":"BLEND","doubleSided":false},{"name":"Cornea","pbrMetallicRoughness":{"baseColorFactor":[1,1,1,1],"baseColorTexture":{"index":1,"texCoord":0},"metallicFactor":1,"roughnessFactor":1},"normalTexture":{"index":0,"texCoord":0,"scale":1},"emissiveFactor":[0,0,0],"alphaMode":"OPAQUE","doubleSided":false},{"name":"Material #71","pbrMetallicRoughness":{"baseColorFactor":[0.6039215686274509,0.23921568627450981,0.2549019607843137,1],"metallicFactor":1,"roughnessFactor":1},"emissiveFactor":[0,0,0],"alphaMode":"OPAQUE","doubleSided":false},{"name":"Material #72","pbrMetallicRoughness":{"baseColorFactor":[0.6980392156862745,0.6980392156862745,0.6980392156862745,1],"metallicFactor":1,"roughnessFactor":1},"emissiveFactor":[0,0,0],"alphaMode":"OPAQUE","doubleSided":false},{"name":"Esclerot","pbrMetallicRoughness":{"baseColorFactor":[1,1,1,1],"metallicFactor":1,"roughnessFactor":1},"emissiveFactor":[0,0,0],"alphaMode":"OPAQUE","doubleSided":false},{"name":"Esclerot","pbrMetallicRoughness":{"baseColorFactor":[1,1,1,1],"metallicFactor":1,"roughnessFactor":1},"emissiveFactor":[0,0,0],"alphaMode":"OPAQUE","doubleSided":false},{"name":"Retina","pbrMetallicRoughness":{"baseColorFactor":[0.0196078431372549,0.0784313725490196,0.17647058823529413,0.6],"metallicFactor":1,"roughnessFactor":1},"emissiveFactor":[0,0,0],"alphaMode":"BLEND","doubleSided":false},{"name":"Retina","pbrMetallicRoughness":{"baseColorFactor":[0.0196078431372549,0.0784313725490196,0.17647058823529413,0.6],"metallicFactor":1,"roughnessFactor":1},"emissiveFactor":[0,0,0],"alphaMode":"BLEND","doubleSided":false},{"name":"Piel","pbrMetallicRoughness":{"baseColorFactor":[1,1,1,1],"baseColorTexture":{"index":3,"texCoord":0},"metallicFactor":1,"roughnessFactor":1},"normalTexture":{"index":2,"texCoord":0,"scale":1},"emissiveFactor":[0,0,0],"alphaMode":"OPAQUE","doubleSided":false},{"name":"Tendones","pbrMetallicRoughness":{"baseColorFactor":[0.6980392156862745,0.6980392156862745,0.6980392156862745,1],"metallicFactor":1,"roughnessFactor":1},"emissiveFactor":[0,0,0],"alphaMode":"OPAQUE","doubleSided":false},{"name":"Tendones","pbrMetallicRoughness":{"baseColorFactor":[0.6980392156862745,0.6980392156862745,0.6980392156862745,1],"metallicFactor":1,"roughnessFactor":1},"emissiveFactor":[0,0,0],"alphaMode":"OPAQUE","doubleSided":false},{"name":"Tendones","pbrMetallicRoughness":{"baseColorFactor":[0.6980392156862745,0.6980392156862745,0.6980392156862745,1],"metallicFactor":1,"roughnessFactor":1},"emissiveFactor":[0,0,0],"alphaMode":"OPAQUE","doubleSided":false},{"name":"Tendones","pbrMetallicRoughness":{"baseColorFactor":[0.6980392156862745,0.6980392156862745,0.6980392156862745,1],"metallicFactor":1,"roughnessFactor":1},"emissiveFactor":[0,0,0],"alphaMode":"OPAQUE","doubleSided":false},{"name":"Tendones","pbrMetallicRoughness":{"baseColorFactor":[0.6980392156862745,0.6980392156862745,0.6980392156862745,1],"metallicFactor":1,"roughnessFactor":1},"emissiveFactor":[0,0,0],"alphaMode":"OPAQUE","doubleSided":false},{"name":"Tendones","pbrMetallicRoughness":{"baseColorFactor":[0.6980392156862745,0.6980392156862745,0.6980392156862745,1],"metallicFactor":1,"roughnessFactor":1},"emissiveFactor":[0,0,0],"alphaMode":"OPAQUE","doubleSided":false}],"meshes":[{"primitives":[{"attributes":{"POSITION":1,"TEXCOORD_0":2},"indices":0,"material":0,"mode":4}],"name":"SighSkul"},{"primitives":[{"attributes":{"POSITION":4},"indices":3,"material":1,"mode":4}],"name":"SighConj"},{"primitives":[{"attributes":{"POSITION":6,"TEXCOORD_0":7},"indices":5,"material":2,"mode":4}],"name":"SighCorn"},{"primitives":[{"attributes":{"POSITION":9},"indices":8,"material":3,"mode":4},{"attributes":{"POSITION":11},"indices":10,"material":4,"mode":4}],"name":"SighCoro"},{"primitives":[{"attributes":{"POSITION":13,"TEXCOORD_0":14},"indices":12,"material":5,"mode":4}],"name":"SighEsc1"},{"primitives":[{"attributes":{"POSITION":16,"TEXCOORD_0":17},"indices":15,"material":6,"mode":4}],"name":"SighEsc2"},{"primitives":[{"attributes":{"POSITION":19},"indices":18,"material":7,"mode":4}],"name":"SighPupi"},{"primitives":[{"attributes":{"POSITION":21},"indices":20,"material":8,"mode":4}],"name":"SighReti"},{"primitives":[{"attributes":{"POSITION":23,"TEXCOORD_0":24},"indices":22,"material":9,"mode":4}],"name":"SighSkin"},{"primitives":[{"attributes":{"POSITION":26,"TEXCOORD_0":27},"indices":25,"material":10,"mode":4}],"name":"SighTe01"},{"primitives":[{"attributes":{"POSITION":29,"TEXCOORD_0":30},"indices":28,"material":11,"mode":4}],"name":"SighTe02"},{"primitives":[{"attributes":{"POSITION":32,"TEXCOORD_0":33},"indices":31,"material":12,"mode":4}],"name":"SighTe03"},{"primitives":[{"attributes":{"POSITION":35,"TEXCOORD_0":36},"indices":34,"material":13,"mode":4}],"name":"SighTe04"},{"primitives":[{"attributes":{"POSITION":38,"TEXCOORD_0":39},"indices":37,"material":14,"mode":4}],"name":"SighTe05"},{"primitives":[{"attributes":{"POSITION":41,"TEXCOORD_0":42},"indices":40,"material":15,"mode":4}],"name":"SighTe06"}],"nodes":[{"matrix":[-29.93992042541504,0,0,0,0,0,29.93992042541504,0,0,29.93992042541504,0,0,362.7205505371094,313.570556640625,611.6118774414062,1],"mesh":0,"name":"SighSkul"},{"matrix":[-29.93992042541504,0,0,0,0,0,29.93992042541504,0,0,29.93992042541504,0,0,207.37156677246094,376.44000244140625,-960.78759765625,1],"mesh":1,"name":"SighConj"},{"matrix":[-29.93992042541504,0,0,0,0,0,29.93992042541504,0,0,29.93992042541504,0,0,206.71005249023438,376.22802734375,-941.1943359375,1],"mesh":2,"name":"SighCorn"},{"matrix":[-29.93992042541504,0,0,0,0,0,29.93992042541504,0,0,29.93992042541504,0,0,210.41598510742188,372.8071594238281,322.9084167480469,1],"mesh":3,"name":"SighCoro"},{"matrix":[-29.93992042541504,0,0,0,0,0,29.93992042541504,0,0,29.93992042541504,0,0,206.95217895507812,376.80548095703125,543.1597900390625,1],"mesh":4,"name":"SighEsc1"},{"matrix":[-29.93992042541504,0,0,0,0,0,29.93992042541504,0,0,29.93992042541504,0,0,206.95217895507812,376.80548095703125,543.1597900390625,1],"mesh":5,"name":"SighEsc2"},{"matrix":[-29.93992042541504,0,0,0,0,0,29.93992042541504,0,0,29.93992042541504,0,0,206.95217895507812,376.80548095703125,-931.8637084960938,1],"mesh":6,"name":"SighPupi"},{"matrix":[-29.93992042541504,0,0,0,0,0,29.93992042541504,0,0,29.93992042541504,0,0,206.95217895507812,376.80548095703125,-91.32930755615234,1],"mesh":7,"name":"SighReti"},{"matrix":[-29.93992042541504,0,0,0,0,0,29.93992042541504,0,0,29.93992042541504,0,0,648.6564331054688,1255.5523681640625,-175.08396911621094,1],"mesh":8,"name":"SighSkin"},{"matrix":[-29.93992042541504,0,0,0,0,0,29.93992042541504,0,0,29.93992042541504,0,0,-165.72161865234375,1097.6368408203125,1364.6326904296875,1],"mesh":9,"name":"SighTe01"},{"matrix":[-29.93992042541504,0,0,0,0,0,29.93992042541504,0,0,29.93992042541504,0,0,-751.7868041992188,962.3882446289062,-300.18328857421875,1],"mesh":10,"name":"SighTe02"},{"matrix":[-29.93992042541504,0,0,0,0,0,29.93992042541504,0,0,29.93992042541504,0,0,-778.833984375,136.75982666015625,1368.338623046875,1],"mesh":11,"name":"SighTe03"},{"matrix":[-29.93992042541504,0,0,0,0,0,29.93992042541504,0,0,29.93992042541504,0,0,188.24429321289062,-344.02587890625,1364.630859375,1],"mesh":12,"name":"SighTe04"},{"matrix":[-29.93992042541504,0,0,0,0,0,29.93992042541504,0,0,29.93992042541504,0,0,650.472900390625,616.8511352539062,1368.4610595703125,1],"mesh":13,"name":"SighTe05"},{"matrix":[-29.93992042541504,0,0,0,0,0,29.93992042541504,0,0,29.93992042541504,0,0,775.76953125,17.957698822021484,-58.562416076660156,1],"mesh":14,"name":"SighTe06"}],"samplers":[{"magFilter":9729,"minFilter":9729,"wrapS":10497,"wrapT":10497},{"magFilter":9729,"minFilter":9729,"wrapS":10497,"wrapT":10497},{"magFilter":9729,"minFilter":9729,"wrapS":10497,"wrapT":10497},{"magFilter":9729,"minFilter":9729,"wrapS":10497,"wrapT":10497}],"scene":0,"scenes":[{"nodes":[0,1,2,3,4,5,6,7,8,9,10,11,12,13,14]}],"textures":[{"sampler":0,"source":0,"name":""},{"sampler":1,"source":1,"name":""},{"sampler":2,"source":2,"name":""},{"sampler":3,"source":3,"name":""}]}